<svg xmlns="http://www.w3.org/2000/svg" viewBox="0 0 233.9 263"><g id="Warstwa_2" data-name="Warstwa 2"><g id="louder"><path d="M218.38,221.83l-18.81-31.36a93.19,93.19,0,0,1-13.29-47.93V115.06a76.79,76.79,0,0,0-54.79-73.47V21.92a21.92,21.92,0,1,0-43.83,0V41.59a76.79,76.79,0,0,0-54.79,73.47v27.48A93.23,93.23,0,0,1,19.6,190.46L.78,221.82a5.5,5.5,0,0,0,4.69,8.31H213.68a5.48,5.48,0,0,0,4.7-8.3Z"/><path d="M75.07,241.08a38.12,38.12,0,0,0,69,0Z"/><circle cx="172.24" cy="61.66" r="61.66" fill="#fff"/><circle cx="172.24" cy="62.5" r="51.66"/><path d="M198.44,56.05H178.7V36.3a6.46,6.46,0,0,0-12.91,0V56.05H146A6.46,6.46,0,0,0,146,69h19.75V88.71a6.46,6.46,0,0,0,12.91,0V69h19.74a6.46,6.46,0,1,0,0-12.91Z" fill="#fff"/></g></g></svg>